<svg width="50" height="50" viewBox="0 0 50 50" fill="none" xmlns="http://www.w3.org/2000/svg">
    <path
        d="M26.0313 0.828478C26.0039 0.856795 25.9844 0.897248 25.9844 0.92152C25.9844 0.945792 25.9219 1.0267 25.8477 1.10356C25.7734 1.18042 25.7109 1.26537 25.7109 1.28964C25.7109 1.31796 25.6484 1.40291 25.5742 1.47977C25.5 1.55663 25.4375 1.64563 25.4375 1.68204C25.4375 1.7144 25.3945 1.77913 25.3398 1.82362C25.2852 1.86812 25.2422 1.9288 25.2422 1.96116C25.2422 1.99353 25.1797 2.07848 25.1055 2.15534C25.0313 2.2322 24.9688 2.31311 24.9688 2.33738C24.9688 2.36165 24.918 2.43446 24.8516 2.49919C24.7891 2.56391 24.7344 2.64078 24.7344 2.66909C24.7344 2.70146 24.6914 2.76618 24.6367 2.81877C24.582 2.87136 24.5391 2.94013 24.5391 2.97249C24.5391 3.00485 24.4766 3.0898 24.4023 3.16667C24.3281 3.24353 24.2656 3.32443 24.2656 3.3487C24.2656 3.37298 24.2109 3.44579 24.1445 3.51456C24.0781 3.57929 24 3.69256 23.9648 3.76133C23.9336 3.83414 23.8906 3.89482 23.8711 3.89482C23.8516 3.89482 23.8359 3.92314 23.8359 3.95955C23.8359 3.99595 23.7734 4.08495 23.6992 4.16181C23.625 4.23463 23.5625 4.31958 23.5625 4.3479C23.5625 4.38026 23.5 4.46521 23.4258 4.54207C23.3516 4.61893 23.2891 4.69984 23.2891 4.72411C23.2891 4.74838 23.2266 4.82929 23.1523 4.90615C23.0781 4.98301 23.0156 5.07201 23.0156 5.10841C23.0156 5.14078 22.9805 5.19741 22.9375 5.22977C22.8945 5.26213 22.8594 5.31877 22.8594 5.35518C22.8594 5.39158 22.7969 5.47654 22.7227 5.54126C22.6484 5.61003 22.5859 5.69094 22.5859 5.7233C22.5859 5.75566 22.5234 5.84061 22.4492 5.91747C22.375 5.99434 22.3125 6.07929 22.3125 6.11165C22.3125 6.14401 22.2695 6.20469 22.2148 6.24919C22.1602 6.29369 22.1172 6.35437 22.1172 6.39078C22.1172 6.42314 22.0664 6.50404 22 6.56472C21.9375 6.6254 21.8828 6.70226 21.8828 6.73463C21.8828 6.76699 21.8203 6.85194 21.7461 6.9288C21.6719 7.00566 21.6094 7.08657 21.6094 7.11084C21.6094 7.13511 21.5664 7.19984 21.5117 7.25243C21.457 7.30501 21.4141 7.37378 21.4141 7.40615C21.4141 7.43851 21.3516 7.51942 21.2773 7.58819C21.2031 7.65291 21.1406 7.73382 21.1406 7.76213C21.1406 7.7945 21.0781 7.88754 21.0039 7.96844C20.9297 8.04935 20.8789 8.12621 20.8867 8.13835C20.8984 8.14644 20.8789 8.19094 20.8398 8.23139C20.7773 8.30016 20.8164 8.30421 21.9922 8.30421C22.7773 8.30421 23.2109 8.28802 23.2109 8.26375C23.2109 8.23948 23.668 8.2233 24.5 8.2233C25.332 8.2233 25.7891 8.23948 25.7891 8.26375C25.7891 8.28802 25.8984 8.30421 26.0391 8.30421C26.2109 8.30421 26.3008 8.32443 26.3359 8.36489C26.3672 8.40534 26.4531 8.42556 26.5742 8.42556C26.6758 8.42556 26.7734 8.44175 26.7852 8.46602C26.7969 8.48624 26.8945 8.50647 27 8.50647C27.1055 8.50647 27.2031 8.52265 27.2148 8.54692C27.2266 8.56715 27.3516 8.58738 27.4922 8.58738C27.6328 8.58738 27.7422 8.60356 27.7422 8.62783C27.7422 8.64806 27.8281 8.66828 27.9336 8.66828C28.0547 8.66828 28.1484 8.69255 28.1875 8.72896C28.2188 8.76133 28.2891 8.78964 28.3438 8.78964C28.4258 8.78964 28.4453 8.76942 28.4453 8.68851C28.4453 8.63188 28.4297 8.58738 28.4063 8.58738C28.3867 8.58738 28.3672 8.53479 28.3672 8.47006C28.3672 8.40129 28.3516 8.33657 28.3281 8.32443C28.3086 8.3123 28.2891 8.22734 28.2891 8.14239C28.2891 8.05744 28.2734 7.97249 28.25 7.96035C28.2305 7.94822 28.2109 7.87945 28.2109 7.81472C28.2109 7.74595 28.1875 7.68527 28.1523 7.67314C28.1211 7.65696 28.0938 7.59628 28.0938 7.5356C28.0938 7.47087 28.0781 7.40615 28.0547 7.39401C28.0352 7.38188 28.0156 7.29692 28.0156 7.21197C28.0156 7.12702 28 7.04207 27.9766 7.02993C27.957 7.0178 27.9375 6.96116 27.9375 6.90453C27.9375 6.84789 27.9102 6.77508 27.8789 6.74272C27.8477 6.70631 27.8203 6.63754 27.8203 6.58495C27.8203 6.53236 27.8047 6.47573 27.7813 6.46359C27.7617 6.45145 27.7422 6.3665 27.7422 6.28155C27.7422 6.1966 27.7266 6.11165 27.7031 6.09951C27.6836 6.08738 27.6641 6.02265 27.6641 5.95388C27.6641 5.88916 27.6484 5.83657 27.625 5.83657C27.6055 5.83657 27.5859 5.78398 27.5859 5.71925C27.5859 5.65453 27.5586 5.58171 27.5273 5.5534C27.4922 5.52508 27.4688 5.43608 27.4688 5.34709C27.4688 5.26213 27.4531 5.18123 27.4297 5.16909C27.4102 5.15696 27.3906 5.09223 27.3906 5.02346C27.3906 4.95874 27.375 4.90615 27.3516 4.90615C27.332 4.90615 27.3125 4.85356 27.3125 4.78883C27.3125 4.72411 27.2852 4.65129 27.2539 4.62298C27.2227 4.59466 27.1953 4.52184 27.1953 4.45712C27.1953 4.39239 27.1797 4.3398 27.1563 4.3398C27.1367 4.3398 27.1172 4.2589 27.1172 4.15777C27.1172 4.05663 27.1016 3.97573 27.0781 3.97573C27.0586 3.97573 27.0391 3.92314 27.0391 3.85841C27.0391 3.78964 27.0234 3.72492 27 3.71278C26.9805 3.70065 26.9609 3.63188 26.9609 3.56715C26.9609 3.49838 26.9375 3.4377 26.9023 3.42557C26.8633 3.40938 26.8438 3.34466 26.8438 3.2233C26.8438 3.12621 26.8281 3.04531 26.8047 3.04531C26.7852 3.04531 26.7656 2.99272 26.7656 2.92799C26.7656 2.85922 26.75 2.7945 26.7266 2.78236C26.707 2.77023 26.6875 2.71359 26.6875 2.65696C26.6875 2.60032 26.6602 2.52346 26.625 2.4911C26.5859 2.45065 26.5703 2.38188 26.5781 2.30906C26.5898 2.24434 26.5742 2.17557 26.543 2.15129C26.5156 2.12702 26.4922 2.05421 26.4922 1.98948C26.4922 1.9288 26.4766 1.86408 26.4531 1.85194C26.4336 1.8398 26.4141 1.77508 26.4141 1.70631C26.4141 1.64158 26.3984 1.589 26.375 1.589C26.3555 1.589 26.3359 1.52023 26.3359 1.43123C26.3359 1.34223 26.3125 1.25324 26.2773 1.22492C26.2461 1.1966 26.2188 1.13592 26.2188 1.08738C26.2188 0.994335 26.1367 0.779934 26.1016 0.779934C26.0859 0.779934 26.0586 0.800161 26.0313 0.828478Z"
        fill="white" />
    <path
        d="M6.88281 6.17638C6.88281 6.2047 6.91016 6.25324 6.94141 6.28156C6.97266 6.30987 7 6.36651 7 6.40696C7 6.45146 7.01953 6.48382 7.03906 6.48382C7.0625 6.48382 7.07812 6.53641 7.07812 6.60114C7.07812 6.66991 7.09766 6.73463 7.11719 6.74677C7.14062 6.7589 7.15625 6.81149 7.15625 6.86408C7.15625 6.96521 7.25391 7.1958 7.31641 7.2322C7.33594 7.24839 7.35156 7.30906 7.35156 7.37783C7.35156 7.44256 7.37109 7.49515 7.39062 7.49515C7.41406 7.49515 7.42969 7.54774 7.42969 7.61246C7.42969 7.68123 7.44922 7.74596 7.46875 7.75809C7.49219 7.77023 7.50781 7.81473 7.50781 7.85923C7.50781 7.89968 7.53516 7.94013 7.56641 7.95631C7.60156 7.96845 7.625 8.02913 7.625 8.0979C7.625 8.16262 7.64453 8.23139 7.66406 8.24353C7.6875 8.25567 7.70312 8.32039 7.70312 8.38916C7.70312 8.45389 7.72266 8.50648 7.74219 8.50648C7.76562 8.50648 7.78125 8.54288 7.78125 8.58334C7.78125 8.62783 7.80078 8.67638 7.82031 8.68851C7.84375 8.70065 7.85938 8.75728 7.85938 8.80583C7.85938 8.85842 7.88672 8.92314 7.91797 8.95146C7.94922 8.97978 7.97656 9.0445 7.97656 9.09709C7.97656 9.14968 8.01172 9.25486 8.05469 9.33576C8.09766 9.41667 8.13281 9.52185 8.13281 9.57444C8.13281 9.62703 8.15625 9.69175 8.1875 9.71602C8.21875 9.74434 8.23828 9.80097 8.23047 9.84143C8.22266 9.88188 8.24219 9.93851 8.27344 9.96683C8.30469 9.9911 8.32812 10.0477 8.32812 10.0882C8.32812 10.1327 8.34766 10.1651 8.36719 10.1651C8.39062 10.1651 8.40625 10.2176 8.40625 10.2824C8.40625 10.3511 8.42578 10.4159 8.44531 10.428C8.46875 10.4401 8.48438 10.4846 8.48438 10.5291C8.48438 10.5696 8.51172 10.61 8.54297 10.6262C8.57812 10.6384 8.60156 10.699 8.60156 10.7678C8.60156 10.8325 8.62109 10.9013 8.64062 10.9134C8.66406 10.9256 8.67969 10.9903 8.67969 11.0591C8.67969 11.1238 8.69922 11.1764 8.71875 11.1764C8.74219 11.1764 8.75781 11.2128 8.75781 11.2532C8.75781 11.2977 8.77734 11.3463 8.79688 11.3584C8.82031 11.3706 8.83594 11.4272 8.83594 11.4757C8.83594 11.5283 8.86328 11.593 8.89453 11.6214C8.92578 11.6497 8.95312 11.7144 8.95312 11.767C8.95312 11.8196 8.98828 11.9248 9.03125 12.0057C9.07422 12.0866 9.10938 12.1918 9.10938 12.2443C9.10938 12.2969 9.13672 12.3617 9.16797 12.39C9.19922 12.4183 9.22656 12.483 9.22656 12.5356C9.22656 12.5841 9.24609 12.6408 9.26562 12.6529C9.28906 12.6651 9.30469 12.7136 9.30469 12.7581C9.30469 12.7985 9.32422 12.835 9.34375 12.835C9.36719 12.835 9.38281 12.8875 9.38281 12.9523C9.38281 13.021 9.40234 13.0858 9.42188 13.0979C9.44531 13.11 9.46094 13.1788 9.46094 13.2435C9.46094 13.3123 9.48438 13.373 9.51953 13.3851C9.55078 13.4013 9.57812 13.4418 9.57812 13.4822C9.57812 13.5267 9.59766 13.5712 9.61719 13.5833C9.64062 13.5955 9.65625 13.6602 9.65625 13.729C9.65625 13.7937 9.67578 13.8463 9.69531 13.8463C9.71875 13.8463 9.73438 13.8989 9.73438 13.9636C9.73438 14.0324 9.75 14.093 9.76953 14.1092C9.82031 14.1375 9.92969 14.3681 9.92969 14.4409C9.92969 14.4693 9.94141 14.4935 9.95312 14.4935C9.96875 14.4935 10.1523 14.3115 10.3633 14.089C10.5781 13.8665 10.7734 13.6845 10.8008 13.6845C10.8281 13.6845 11.0508 13.4741 11.2969 13.2193C11.543 12.9644 11.7617 12.754 11.7852 12.754C11.8086 12.754 11.8867 12.6893 11.9609 12.6125C12.0352 12.5356 12.1172 12.4709 12.1484 12.4709C12.1758 12.4709 12.2578 12.4062 12.3281 12.3293C12.4023 12.2524 12.4844 12.1877 12.5156 12.1877C12.5469 12.1877 12.6289 12.123 12.7031 12.0461C12.7773 11.9693 12.8555 11.9045 12.8789 11.9045C12.9023 11.9045 12.9805 11.8398 13.0547 11.7629C13.1289 11.6861 13.207 11.6214 13.2305 11.6214C13.2578 11.6214 13.332 11.5647 13.3984 11.5C13.4688 11.4312 13.5469 11.3786 13.5742 11.3786C13.5977 11.3786 13.6758 11.3139 13.7383 11.2371C13.8047 11.1602 13.8828 11.0955 13.918 11.0955C13.9492 11.0955 14.0195 11.051 14.0703 10.9943C14.1211 10.9377 14.1836 10.8932 14.207 10.8932C14.2344 10.8932 14.2852 10.8568 14.3242 10.8123C14.3633 10.7678 14.418 10.7314 14.4492 10.7314C14.4805 10.7314 14.543 10.6869 14.5938 10.6303C14.6445 10.5736 14.7109 10.5291 14.7422 10.5291C14.7734 10.5291 14.8398 10.4846 14.8906 10.428C14.9375 10.3754 14.9922 10.339 15.0078 10.3471C15.0234 10.3552 15.0781 10.3188 15.125 10.2662C15.1758 10.2095 15.2422 10.1651 15.2695 10.1651C15.3242 10.1651 15.4375 10.072 15.4375 10.0275C15.4375 9.99919 15.1992 9.88188 15.1367 9.88188C15.1094 9.88188 15.0859 9.86165 15.0859 9.84143C15.0859 9.81716 15.0508 9.80097 15.0078 9.80097C14.9648 9.80097 14.9297 9.78075 14.9297 9.76052C14.9297 9.73625 14.8984 9.72007 14.8555 9.72007C14.8164 9.72007 14.7617 9.69175 14.7344 9.65939C14.707 9.62703 14.6367 9.59871 14.5742 9.59871C14.5117 9.59871 14.4609 9.57848 14.4609 9.55826C14.4609 9.53398 14.4297 9.5178 14.3945 9.51376C14.3555 9.51376 14.2734 9.47735 14.207 9.4369C13.9961 9.29936 13.8633 9.23463 13.7969 9.23463C13.7227 9.23463 13.3398 9.04046 13.3047 8.98787C13.293 8.96764 13.2344 8.95146 13.1719 8.95146C13.1094 8.95146 13.0469 8.93123 13.0352 8.91101C13.0234 8.88673 12.9766 8.87055 12.9336 8.87055C12.8945 8.87055 12.8594 8.85033 12.8594 8.8301C12.8594 8.80583 12.8242 8.78965 12.7812 8.78965C12.7383 8.78965 12.7031 8.77347 12.7031 8.75728C12.7031 8.71279 12.4219 8.58738 12.3203 8.58738C12.2734 8.58738 12.2344 8.56716 12.2344 8.54693C12.2344 8.52266 12.2031 8.50648 12.168 8.50243C12.1289 8.50243 12.0469 8.46602 11.9805 8.42557C11.7656 8.28803 11.6367 8.2233 11.5703 8.2233C11.4922 8.2233 11.2695 8.11408 11.2383 8.05745C11.2227 8.03722 11.1992 8.02913 11.1797 8.04127C11.1641 8.0534 11.1289 8.03317 11.1016 8.00081C11.0742 7.96845 11.0195 7.94013 10.9805 7.94013C10.9375 7.94013 10.9062 7.91991 10.9062 7.89968C10.9062 7.87541 10.8555 7.85923 10.793 7.85923C10.7266 7.85923 10.6641 7.839 10.6523 7.81877C10.6406 7.7945 10.5977 7.77832 10.5547 7.77832C10.5156 7.77832 10.4766 7.75 10.4609 7.71764C10.4492 7.68528 10.4023 7.65696 10.3594 7.65696C10.3164 7.65696 10.2812 7.63673 10.2812 7.61651C10.2812 7.59224 10.2461 7.57606 10.207 7.57606C10.1641 7.57606 10.1172 7.55583 10.1055 7.5356C10.0938 7.51133 10.0352 7.49515 9.97656 7.4911C9.91797 7.4911 9.82031 7.4547 9.75391 7.41424C9.55078 7.28479 9.41016 7.21198 9.35547 7.21198C9.32812 7.21198 9.30469 7.19175 9.30469 7.17152C9.30469 7.14725 9.25391 7.13107 9.19141 7.13107C9.125 7.13107 9.06641 7.11489 9.05078 7.09466C9.02344 7.04207 8.80078 6.92881 8.73047 6.92881C8.70312 6.92881 8.67969 6.90858 8.67969 6.88835C8.67969 6.86408 8.63672 6.8479 8.58984 6.8479C8.48828 6.8479 8.26562 6.74677 8.23047 6.68204C8.21484 6.66182 8.17188 6.64563 8.12891 6.64563C8.08984 6.64563 8.05469 6.62541 8.05469 6.60518C8.05469 6.58091 8.01953 6.56473 7.98047 6.56473C7.9375 6.56473 7.89062 6.5445 7.87891 6.52428C7.86719 6.5 7.80469 6.48382 7.74219 6.48382C7.67969 6.48382 7.62109 6.46764 7.60938 6.44741C7.57812 6.39887 7.19531 6.20065 7.12891 6.20065C7.10156 6.20065 7.07812 6.18042 7.07812 6.1602C7.07812 6.13593 7.03516 6.11974 6.98047 6.11974C6.92188 6.11974 6.88281 6.14402 6.88281 6.17638Z"
        fill="white" />
    <path
        d="M41.1992 8.46602C41.1875 8.48625 41.125 8.50647 41.0586 8.50647C40.9961 8.50647 40.9453 8.52265 40.9453 8.54693C40.9453 8.56715 40.8945 8.58738 40.832 8.58738C40.7656 8.58738 40.7031 8.60356 40.6914 8.62783C40.6797 8.64806 40.6133 8.66828 40.5508 8.66828C40.4844 8.66828 40.4258 8.69256 40.4141 8.72896C40.3984 8.76133 40.3398 8.78964 40.2813 8.78964C40.2188 8.78964 40.1563 8.80583 40.1445 8.8301C40.1328 8.85032 40.0859 8.87055 40.043 8.87055C40.0039 8.87055 39.9688 8.88673 39.9688 8.911C39.9688 8.93123 39.918 8.95146 39.8555 8.95146C39.793 8.95146 39.7227 8.97977 39.6953 9.01214C39.668 9.0445 39.5977 9.07282 39.5352 9.07282C39.4727 9.07282 39.4219 9.089 39.4219 9.11327C39.4219 9.1335 39.3594 9.15372 39.2852 9.15372C39.2109 9.15372 39.1484 9.1699 39.1484 9.19417C39.1484 9.2144 39.0977 9.23463 39.0352 9.23463C38.9688 9.23463 38.9063 9.25081 38.8945 9.27508C38.8828 9.29531 38.8281 9.31553 38.7813 9.31553C38.7305 9.31553 38.668 9.34385 38.6406 9.37621C38.6133 9.40858 38.543 9.43689 38.4805 9.43689C38.4219 9.43689 38.3594 9.45307 38.3477 9.47735C38.3359 9.49757 38.2734 9.5178 38.207 9.5178C38.1445 9.5178 38.0938 9.53398 38.0938 9.55825C38.0938 9.57848 38.043 9.59871 37.9805 9.59871C37.918 9.59871 37.8477 9.62702 37.8203 9.65939C37.793 9.69175 37.7227 9.72006 37.6602 9.72006C37.5977 9.72006 37.5469 9.73625 37.5469 9.76052C37.5469 9.78074 37.5117 9.80097 37.4727 9.80097C37.4297 9.80097 37.3828 9.81715 37.3711 9.84142C37.3594 9.86165 37.2969 9.88188 37.2305 9.88188C37.168 9.88188 37.1172 9.89806 37.1172 9.92233C37.1172 9.94256 37.0664 9.96278 37.0039 9.96278C36.9414 9.96278 36.8711 9.9911 36.8438 10.0235C36.8164 10.0558 36.7461 10.0841 36.6836 10.0841C36.6211 10.0841 36.5703 10.1003 36.5703 10.1246C36.5703 10.1448 36.5195 10.165 36.457 10.165C36.3906 10.165 36.3281 10.1812 36.3164 10.2055C36.3047 10.2257 36.2422 10.246 36.1836 10.246C36.1211 10.246 36.0508 10.2743 36.0195 10.3107C35.9922 10.343 35.9375 10.3633 35.9023 10.3552C35.8633 10.343 35.8125 10.3592 35.7852 10.3916C35.7617 10.4239 35.6914 10.4482 35.6289 10.4482C35.5703 10.4482 35.5078 10.4644 35.4961 10.4887C35.4844 10.5089 35.4219 10.5291 35.3555 10.5291C35.293 10.5291 35.2422 10.5453 35.2422 10.5696C35.2422 10.5898 35.1914 10.61 35.1289 10.61C35.0625 10.61 35.0039 10.6262 34.9883 10.6464C34.9531 10.7112 34.7305 10.8123 34.6328 10.8123C34.582 10.8123 34.5313 10.8285 34.5195 10.8528C34.5078 10.873 34.4453 10.8932 34.3789 10.8932C34.3164 10.8932 34.2656 10.9094 34.2656 10.9337C34.2656 10.9539 34.2148 10.9741 34.1523 10.9741C34.0898 10.9741 34.0195 11.0024 33.9922 11.0348C33.9648 11.0672 33.8945 11.0955 33.832 11.0955C33.7695 11.0955 33.7188 11.1117 33.7188 11.1359C33.7188 11.1561 33.6836 11.1764 33.6406 11.1764C33.5977 11.1764 33.5625 11.1926 33.5625 11.2168C33.5625 11.2371 33.5859 11.2573 33.6172 11.2573C33.6445 11.2573 33.6914 11.2856 33.7188 11.318C33.7461 11.3503 33.8008 11.3786 33.8398 11.3786C33.8828 11.3786 33.9141 11.3948 33.9141 11.4191C33.9141 11.4393 33.9492 11.4595 33.9922 11.4595C34.0352 11.4595 34.0703 11.4757 34.0703 11.5C34.0703 11.5202 34.1211 11.5405 34.1836 11.5405C34.25 11.5405 34.3125 11.5566 34.3242 11.5809C34.3359 11.6011 34.3828 11.6214 34.4258 11.6214C34.4688 11.6214 34.5117 11.6497 34.5234 11.682C34.5391 11.7144 34.5977 11.7427 34.6563 11.7427C34.7188 11.7427 34.7813 11.7589 34.793 11.7832C34.8047 11.8034 34.8516 11.8236 34.8945 11.8236C34.9336 11.8236 34.9688 11.8398 34.9688 11.8641C34.9688 11.8843 35 11.9045 35.043 11.9045C35.082 11.9045 35.1367 11.9328 35.1641 11.9652C35.1914 11.9976 35.2539 12.0259 35.3047 12.0259C35.3516 12.0259 35.4063 12.0421 35.418 12.0663C35.4297 12.0866 35.4766 12.1068 35.5195 12.1068C35.5586 12.1068 35.5938 12.123 35.5938 12.1472C35.5938 12.1675 35.6172 12.1877 35.6445 12.1877C35.7344 12.1877 35.9453 12.3131 35.9453 12.3657C35.9453 12.394 36.0078 12.4749 36.082 12.5518C36.1563 12.6286 36.2188 12.7136 36.2188 12.746C36.2188 12.7743 36.2813 12.8592 36.3555 12.932C36.4297 13.0089 36.4922 13.0939 36.4922 13.1262C36.4922 13.1586 36.5547 13.2435 36.6289 13.3204C36.7031 13.3972 36.7656 13.4782 36.7656 13.5024C36.7656 13.5267 36.8203 13.5995 36.8828 13.6642C36.9492 13.729 37 13.8018 37 13.8261C37 13.8503 37.0625 13.9393 37.1367 14.0202C37.2109 14.1011 37.2734 14.1942 37.2734 14.2265C37.2734 14.2549 37.3359 14.3358 37.4102 14.4005C37.4844 14.4693 37.5469 14.5502 37.5469 14.5825C37.5469 14.6149 37.6094 14.6998 37.6836 14.7767C37.7578 14.8536 37.8203 14.9345 37.8203 14.9587C37.8203 14.9871 37.8516 15.0356 37.8906 15.0761C37.9609 15.1367 37.9688 15.1367 38.0273 15.068C38.0664 15.0275 38.0938 14.9628 38.0938 14.9264C38.0938 14.89 38.1133 14.8576 38.1328 14.8576C38.1563 14.8576 38.1719 14.8212 38.1719 14.7767C38.1719 14.7322 38.1914 14.6958 38.2109 14.6958C38.2344 14.6958 38.25 14.6594 38.25 14.6189C38.25 14.5744 38.2656 14.5299 38.2852 14.5138C38.3359 14.4854 38.4453 14.2549 38.4453 14.182C38.4453 14.1537 38.4648 14.1295 38.4844 14.1295C38.5078 14.1295 38.5234 14.0971 38.5234 14.0526C38.5234 14.0121 38.5508 13.9555 38.582 13.9272C38.6133 13.8989 38.6328 13.8625 38.6211 13.8463C38.6094 13.8301 38.6289 13.7937 38.6602 13.7654C38.6914 13.7371 38.7188 13.6926 38.7188 13.6642C38.7188 13.64 38.7539 13.5833 38.7969 13.5429C38.8398 13.5024 38.875 13.4337 38.875 13.3932C38.875 13.3528 38.9023 13.3083 38.9336 13.2961C38.9648 13.2799 38.9922 13.2476 38.9922 13.2152C38.9922 13.1869 39.0273 13.0979 39.0703 13.017C39.1133 12.9361 39.1484 12.8471 39.1484 12.8147C39.1484 12.7824 39.1641 12.754 39.1836 12.754C39.2031 12.754 39.2305 12.7095 39.2422 12.6529C39.2578 12.5963 39.2852 12.5518 39.3047 12.5518C39.3281 12.5518 39.3438 12.5235 39.3438 12.4911C39.3438 12.4587 39.3789 12.3697 39.4219 12.2888C39.4648 12.2079 39.5 12.1189 39.5 12.0906C39.5 12.0583 39.5273 12.0259 39.5586 12.0097C39.5898 11.9976 39.6172 11.9531 39.6172 11.9126C39.6172 11.8681 39.6445 11.8115 39.6758 11.7832C39.7109 11.7549 39.7734 11.6497 39.8125 11.5566C39.8555 11.4595 39.9063 11.3706 39.9297 11.3584C39.9492 11.3463 39.9688 11.2977 39.9688 11.2532C39.9688 11.2128 39.9883 11.1764 40.0078 11.1764C40.0313 11.1764 40.0469 11.1521 40.0469 11.1238C40.0469 11.051 40.1563 10.8204 40.207 10.7921C40.2266 10.7759 40.2422 10.7314 40.2422 10.6869C40.2422 10.6464 40.2617 10.61 40.2813 10.61C40.3047 10.61 40.3203 10.5736 40.3203 10.5291C40.3203 10.4846 40.3398 10.4482 40.3594 10.4482C40.3828 10.4482 40.3984 10.4159 40.3984 10.3754C40.3984 10.3309 40.4336 10.2662 40.4766 10.2257C40.5625 10.1448 40.6719 9.93851 40.6719 9.85356C40.6719 9.82524 40.6914 9.80097 40.7109 9.80097C40.7344 9.80097 40.75 9.76456 40.75 9.72411C40.75 9.67961 40.7656 9.63511 40.7852 9.61893C40.8359 9.59061 40.9453 9.36003 40.9453 9.28722C40.9453 9.2589 40.9648 9.23463 40.9844 9.23463C41.0078 9.23463 41.0234 9.20227 41.0273 9.16181C41.0273 9.1254 41.0625 9.03641 41.1016 8.97168C41.2266 8.76133 41.2969 8.6157 41.2969 8.55906C41.2969 8.53074 41.3164 8.50647 41.3359 8.50647C41.3594 8.50647 41.375 8.48625 41.375 8.46602C41.375 8.44175 41.3398 8.42557 41.3008 8.42557C41.2578 8.42557 41.2109 8.44175 41.1992 8.46602Z"
        fill="white" />
    <path
        d="M22.2148 9.47734C22.1992 9.50162 22.0078 9.5178 21.7617 9.5178C21.5039 9.5178 21.3359 9.53398 21.3359 9.55825C21.3359 9.58252 21.2148 9.5987 21.0469 9.5987C20.8398 9.5987 20.7461 9.61488 20.7109 9.65938C20.6797 9.69984 20.5938 9.72006 20.4727 9.72006C20.3711 9.72006 20.2734 9.73624 20.2617 9.76052C20.25 9.78074 20.1406 9.80097 20.0234 9.80097C19.9063 9.80097 19.8125 9.81715 19.8125 9.84142C19.8125 9.86165 19.7344 9.88187 19.6367 9.88187C19.5391 9.88187 19.4609 9.89806 19.4609 9.92233C19.4609 9.94255 19.4102 9.96278 19.3477 9.96278C19.2852 9.96278 19.2148 9.9911 19.1875 10.0235C19.1602 10.0599 19.0742 10.0841 18.9883 10.0841C18.9023 10.0841 18.8359 10.1003 18.8359 10.1246C18.8359 10.1448 18.7852 10.165 18.7227 10.165C18.6563 10.165 18.5938 10.1812 18.582 10.2055C18.5703 10.2257 18.5313 10.246 18.5 10.246C18.4648 10.246 18.4102 10.2743 18.3789 10.3107C18.3438 10.343 18.2852 10.3633 18.2461 10.3552C18.207 10.343 18.1563 10.3592 18.1289 10.3916C18.1055 10.4239 18.0352 10.4482 17.9727 10.4482C17.9102 10.4482 17.8594 10.4644 17.8594 10.4887C17.8594 10.5089 17.8086 10.5291 17.7461 10.5291C17.6797 10.5291 17.6172 10.5453 17.6055 10.5696C17.5938 10.5898 17.5508 10.61 17.5078 10.61C17.4688 10.61 17.4297 10.6383 17.4141 10.6707C17.4023 10.7031 17.3672 10.7314 17.3359 10.7314C17.3008 10.7314 17.2148 10.7678 17.1367 10.8123C17.0586 10.8568 16.9727 10.8932 16.9414 10.8932C16.9102 10.8932 16.8828 10.9094 16.8828 10.9337C16.8828 10.9539 16.832 10.9741 16.7695 10.9741C16.7031 10.9741 16.6445 10.9903 16.6289 11.0105C16.6016 11.0631 16.3789 11.1764 16.3086 11.1764C16.2813 11.1764 16.2578 11.1926 16.2578 11.2168C16.2578 11.2371 16.2227 11.2573 16.1836 11.2573C16.1406 11.2573 16.0742 11.3018 16.0313 11.3584C15.9883 11.415 15.9258 11.4595 15.8945 11.4595C15.8594 11.4595 15.8203 11.4757 15.8086 11.5C15.7969 11.5202 15.7578 11.5405 15.7227 11.5405C15.6914 11.5405 15.6289 11.5849 15.5859 11.6416C15.543 11.6982 15.4766 11.7427 15.4336 11.7427C15.3945 11.7427 15.3594 11.7589 15.3594 11.7832C15.3594 11.8034 15.3281 11.8236 15.2891 11.8236C15.25 11.8236 15.1758 11.8681 15.125 11.9248C15.0742 11.9814 15.0117 12.0259 14.9883 12.0259C14.9609 12.0259 14.9102 12.0623 14.8711 12.1068C14.832 12.1513 14.7773 12.1877 14.7461 12.1877C14.7148 12.1877 14.6328 12.2524 14.5625 12.3293C14.4883 12.4061 14.4063 12.4709 14.375 12.4709C14.3438 12.4709 14.2773 12.5154 14.2266 12.572C14.1797 12.6246 14.125 12.661 14.1094 12.6529C14.0938 12.6448 13.9961 12.7257 13.8945 12.8349C13.7891 12.9482 13.6797 13.0372 13.6523 13.0372C13.6289 13.0372 13.4492 13.199 13.2617 13.4013C13.0742 13.5995 12.8945 13.7654 12.8672 13.7654C12.7969 13.7654 12.5859 13.9717 12.5859 14.0364C12.5859 14.0688 12.3828 14.3034 12.1367 14.5623C11.8906 14.8171 11.6875 15.0518 11.6875 15.076C11.6875 15.1044 11.6094 15.2055 11.5117 15.3026C11.4141 15.3997 11.3359 15.5008 11.3359 15.5251C11.3359 15.5494 11.2852 15.6222 11.2188 15.6869C11.1523 15.7516 11.1016 15.8244 11.1016 15.8568C11.1016 15.8851 11.0391 15.9701 10.9648 16.0469C10.8906 16.1278 10.8281 16.2168 10.8281 16.2451C10.8281 16.2775 10.8008 16.326 10.7695 16.3544C10.7383 16.3827 10.7109 16.4272 10.7109 16.4555C10.7109 16.4798 10.6758 16.5364 10.6328 16.5769C10.5898 16.6173 10.5547 16.678 10.5547 16.7104C10.5547 16.7427 10.5117 16.8034 10.457 16.8479C10.4023 16.8924 10.3594 16.9612 10.3594 17.0057C10.3594 17.0461 10.3438 17.0825 10.3203 17.0825C10.3008 17.0825 10.2813 17.1149 10.2813 17.1553C10.2813 17.1998 10.2461 17.2646 10.2031 17.305C10.1172 17.3859 10.0078 17.5922 10.0078 17.6772C10.0078 17.7055 9.99219 17.7298 9.96875 17.7298C9.94922 17.7298 9.92969 17.7621 9.92578 17.7985C9.92578 17.839 9.89063 17.9239 9.85156 17.9927C9.72656 18.2031 9.65625 18.3487 9.65625 18.4053C9.65625 18.4337 9.64063 18.4579 9.61719 18.4579C9.59766 18.4579 9.57813 18.4903 9.57813 18.5348C9.57813 18.5752 9.55078 18.6319 9.51953 18.6602C9.48828 18.6885 9.46094 18.7532 9.46094 18.8058C9.46094 18.8544 9.44531 18.911 9.42188 18.9231C9.40234 18.9353 9.38281 18.9838 9.38281 19.0283C9.38281 19.0688 9.36719 19.1052 9.34375 19.1052C9.32422 19.1052 9.30469 19.1578 9.30469 19.2225C9.30469 19.2913 9.28906 19.356 9.26563 19.3681C9.24609 19.3803 9.22656 19.4288 9.22656 19.4733C9.22656 19.5178 9.19922 19.5623 9.16797 19.5744C9.13672 19.5906 9.10938 19.6513 9.10938 19.712C9.10938 19.7767 9.09375 19.8414 9.07031 19.8536C9.05078 19.8657 9.03125 19.9304 9.03125 19.9992C9.03125 20.0639 9.01563 20.1165 8.99219 20.1165C8.97266 20.1165 8.95313 20.1893 8.95313 20.2824C8.95313 20.3754 8.92578 20.4725 8.89453 20.5049C8.86328 20.5413 8.83594 20.61 8.83594 20.6626C8.83594 20.7152 8.82031 20.7718 8.79688 20.784C8.77734 20.7961 8.75781 20.8811 8.75781 20.966C8.75781 21.051 8.74219 21.1359 8.71875 21.1481C8.69922 21.1602 8.67969 21.2613 8.67969 21.3705C8.67969 21.4798 8.66406 21.5809 8.64063 21.593C8.62109 21.6052 8.60156 21.7063 8.60156 21.8115C8.60156 21.9369 8.58203 22.0259 8.54297 22.0583C8.50391 22.0947 8.48438 22.1877 8.48438 22.3657C8.48438 22.5113 8.46875 22.6246 8.44531 22.6246C8.42188 22.6246 8.40625 22.7985 8.40625 23.0655C8.40625 23.3204 8.39063 23.5186 8.36719 23.5348C8.3125 23.5672 8.3125 25.7273 8.36719 25.7597C8.39063 25.7759 8.40625 25.9741 8.40625 26.229C8.40625 26.496 8.42188 26.6699 8.44531 26.6699C8.46875 26.6699 8.48438 26.7832 8.48438 26.9288C8.48438 27.1068 8.50391 27.1998 8.54297 27.2362C8.58203 27.2686 8.60156 27.3576 8.60156 27.483C8.60156 27.5882 8.62109 27.6893 8.64063 27.7015C8.66406 27.7136 8.67969 27.8147 8.67969 27.9239C8.67969 28.0332 8.69922 28.1343 8.71875 28.1464C8.74219 28.1586 8.75781 28.2435 8.75781 28.3285C8.75781 28.4134 8.77734 28.4984 8.79688 28.5105C8.82031 28.5227 8.83594 28.5793 8.83594 28.6319C8.83594 28.6845 8.86328 28.7532 8.89453 28.7896C8.92578 28.822 8.95313 28.9191 8.95313 29.0121C8.95313 29.1052 8.97266 29.178 8.99219 29.178C9.01563 29.178 9.03125 29.2306 9.03125 29.2953C9.03125 29.3641 9.05078 29.4288 9.07031 29.4409C9.09375 29.4531 9.10938 29.5178 9.10938 29.5825C9.10938 29.6432 9.13672 29.7039 9.16797 29.7201C9.19922 29.7322 9.22656 29.7807 9.22656 29.8252C9.22656 29.8697 9.24609 29.9061 9.26563 29.9061C9.28906 29.9061 9.30469 29.9709 9.30469 30.0477C9.30469 30.1246 9.32422 30.1893 9.34375 30.1893C9.36719 30.1893 9.38281 30.2257 9.38281 30.2702C9.38281 30.3147 9.40234 30.3511 9.42188 30.3511C9.44531 30.3511 9.46094 30.4037 9.46094 30.4684C9.46094 30.5332 9.48828 30.606 9.51953 30.6343C9.55078 30.6626 9.57813 30.7193 9.57813 30.7597C9.57813 30.8042 9.59766 30.8366 9.61719 30.8366C9.64063 30.8366 9.65625 30.873 9.65625 30.9175C9.65625 30.962 9.67578 30.9984 9.69531 30.9984C9.71875 30.9984 9.73438 31.0348 9.73438 31.0752C9.73438 31.1197 9.75 31.1642 9.76953 31.1804C9.82031 31.2087 9.92969 31.4393 9.92969 31.5121C9.92969 31.5405 9.94922 31.5647 9.96875 31.5647C9.99219 31.5647 10.0078 31.589 10.0078 31.6173C10.0078 31.7023 10.1172 31.9086 10.2031 31.9895C10.2461 32.0299 10.2813 32.0947 10.2813 32.1392C10.2813 32.1796 10.3008 32.212 10.3203 32.212C10.3438 32.212 10.3594 32.2484 10.3594 32.2888C10.3594 32.3333 10.4023 32.4021 10.457 32.4466C10.5117 32.4911 10.5547 32.5518 10.5547 32.5841C10.5547 32.6165 10.5898 32.6772 10.6328 32.7176C10.6758 32.7581 10.7109 32.8147 10.7109 32.839C10.7109 32.8673 10.7383 32.9118 10.7695 32.9401C10.8008 32.9684 10.8281 33.017 10.8281 33.0494C10.8281 33.0777 10.8906 33.1667 10.9648 33.2476C11.0391 33.3244 11.1016 33.4053 11.1016 33.4296C11.1016 33.4498 11.1523 33.5267 11.2188 33.5995C11.2813 33.6723 11.3359 33.7492 11.3359 33.7694C11.3359 33.7937 11.4219 33.9029 11.5273 34.0081C11.6367 34.1173 11.7188 34.2225 11.7148 34.2387C11.7109 34.2589 11.9063 34.4814 12.1484 34.7362C12.3867 34.9871 12.5859 35.2217 12.5859 35.254C12.5859 35.3188 12.7227 35.4482 12.793 35.4482C12.8164 35.4482 13.0156 35.6303 13.2266 35.8527C13.4414 36.0752 13.6367 36.2573 13.6602 36.2573C13.6836 36.2573 13.7813 36.3382 13.875 36.4393C13.9688 36.5405 14.0664 36.6214 14.0898 36.6214C14.1133 36.6214 14.1758 36.6659 14.2266 36.7225C14.2773 36.7791 14.3438 36.8236 14.375 36.8236C14.4063 36.8236 14.4922 36.8883 14.5664 36.9652C14.6406 37.0421 14.7227 37.1068 14.75 37.1068C14.7773 37.1068 14.832 37.1432 14.8711 37.1877C14.9102 37.2322 14.9609 37.2686 14.9883 37.2686C15.0117 37.2686 15.0742 37.3131 15.125 37.3697C15.1758 37.4264 15.25 37.4709 15.2891 37.4709C15.3281 37.4709 15.3594 37.4871 15.3594 37.5113C15.3594 37.5316 15.3906 37.5518 15.4297 37.5518C15.4727 37.5518 15.5352 37.5882 15.5742 37.6327C15.6484 37.7136 15.8477 37.835 15.918 37.835C15.9375 37.835 15.9883 37.8794 16.0313 37.9361C16.0742 37.9927 16.1406 38.0372 16.1836 38.0372C16.2227 38.0372 16.2578 38.0534 16.2578 38.0777C16.2578 38.0979 16.2852 38.1181 16.3164 38.1181C16.3477 38.1181 16.4336 38.1545 16.5117 38.199C16.5898 38.2435 16.6914 38.2799 16.7461 38.2799C16.7969 38.2799 16.8477 38.2961 16.8633 38.3163C16.8906 38.3689 17.1133 38.4822 17.1836 38.4822C17.2109 38.4822 17.2344 38.4984 17.2344 38.5227C17.2344 38.5429 17.2695 38.5631 17.3125 38.5631C17.3555 38.5631 17.4023 38.5914 17.4141 38.6238C17.4297 38.6561 17.4688 38.6845 17.5078 38.6845C17.5508 38.6845 17.5938 38.7006 17.6055 38.7249C17.6172 38.7451 17.6797 38.7654 17.7461 38.7654C17.8086 38.7654 17.8594 38.7816 17.8594 38.8058C17.8594 38.8261 17.9102 38.8463 17.9727 38.8463C18.0391 38.8463 18.1016 38.8625 18.1133 38.8867C18.125 38.907 18.1914 38.9272 18.2539 38.9272C18.3203 38.9272 18.3789 38.9515 18.3906 38.9879C18.4063 39.0202 18.4453 39.0485 18.4844 39.0485C18.5273 39.0485 18.5703 39.0647 18.582 39.089C18.5938 39.1092 18.6563 39.1294 18.7227 39.1294C18.7852 39.1294 18.8359 39.1456 18.8359 39.1699C18.8359 39.1901 18.9023 39.2104 18.9883 39.2104C19.0742 39.2104 19.1602 39.2346 19.1875 39.271C19.2148 39.3034 19.2852 39.3317 19.3477 39.3317C19.4063 39.3317 19.4688 39.3479 19.4805 39.3722C19.4922 39.3924 19.5742 39.4126 19.6602 39.4126C19.7422 39.4126 19.8125 39.4288 19.8125 39.4531C19.8125 39.4733 19.9063 39.4935 20.0234 39.4935C20.1406 39.4935 20.25 39.5138 20.2617 39.534C20.2734 39.5583 20.3711 39.5744 20.4727 39.5744C20.5938 39.5744 20.6797 39.5947 20.7109 39.6351C20.7461 39.6796 20.8398 39.6958 21.0469 39.6958C21.2148 39.6958 21.3359 39.712 21.3359 39.7362C21.3359 39.7605 21.5039 39.7767 21.7617 39.7767C22.0078 39.7767 22.1992 39.7929 22.2148 39.8172C22.2461 39.8738 24.4609 39.8738 24.4609 39.8172C24.4609 39.7929 24.6289 39.7767 24.8867 39.7767C25.1328 39.7767 25.3242 39.7605 25.3398 39.7362C25.3516 39.712 25.4922 39.6958 25.6484 39.6958C25.8555 39.6958 25.9492 39.6796 25.9844 39.6351C26.0156 39.5947 26.1016 39.5744 26.2227 39.5744C26.3281 39.5744 26.4141 39.5542 26.4141 39.534C26.4141 39.5097 26.5078 39.4935 26.625 39.4935C26.7422 39.4935 26.8516 39.4733 26.8633 39.4531C26.875 39.4288 26.957 39.4126 27.0391 39.4126C27.1211 39.4126 27.2031 39.3924 27.2148 39.3722C27.2266 39.3479 27.2813 39.3317 27.3281 39.3317C27.3789 39.3317 27.4414 39.3034 27.4688 39.271C27.4961 39.2346 27.582 39.2104 27.668 39.2104C27.75 39.2104 27.8281 39.1942 27.8398 39.1699C27.8516 39.1456 27.9141 39.1294 27.9805 39.1294C28.043 39.1294 28.0938 39.1092 28.0938 39.089C28.0938 39.0647 28.125 39.0485 28.168 39.0485C28.207 39.0485 28.2617 39.0202 28.2891 38.9879C28.3164 38.9555 28.3867 38.9272 28.4492 38.9272C28.5117 38.9272 28.5625 38.907 28.5625 38.8867C28.5625 38.8625 28.6133 38.8463 28.6758 38.8463C28.7422 38.8463 28.8047 38.8261 28.8164 38.8058C28.8281 38.7816 28.8867 38.7654 28.9453 38.7613C29.0039 38.7613 29.1055 38.7249 29.168 38.6845C29.3711 38.555 29.5117 38.4822 29.5664 38.4822C29.5938 38.4822 29.6172 38.462 29.6172 38.4417C29.6172 38.4175 29.6484 38.4013 29.6914 38.4013C29.7305 38.4013 29.7852 38.373 29.8125 38.3406C29.8398 38.3083 29.9023 38.2799 29.9531 38.2799C30 38.2799 30.0547 38.2597 30.0664 38.2395C30.0781 38.2152 30.125 38.199 30.168 38.199C30.207 38.199 30.2422 38.1788 30.2422 38.1586C30.2422 38.1343 30.2656 38.1181 30.293 38.1181C30.375 38.1181 30.5742 38.0049 30.6523 37.9159C30.6914 37.8714 30.7539 37.835 30.7969 37.835C30.8359 37.835 30.8672 37.8147 30.8672 37.7945C30.8672 37.7702 30.9023 37.754 30.9414 37.754C30.9844 37.754 31.0508 37.7095 31.0938 37.6529C31.1367 37.5963 31.1992 37.5518 31.2305 37.5518C31.2656 37.5518 31.3047 37.5316 31.3164 37.5113C31.3281 37.4871 31.3672 37.4709 31.4023 37.4709C31.4336 37.4709 31.4961 37.4264 31.5391 37.3697C31.582 37.3131 31.6445 37.2686 31.6836 37.2686C31.7188 37.2686 31.7734 37.2322 31.8047 37.1877C31.8359 37.1432 31.8906 37.1068 31.9219 37.1068C31.957 37.1068 32.043 37.0421 32.1172 36.9652C32.1914 36.8883 32.2695 36.8236 32.293 36.8236C32.3164 36.8236 32.3789 36.7791 32.4297 36.7225C32.4805 36.6659 32.5469 36.6214 32.5781 36.6214C32.6094 36.6214 32.707 36.5405 32.7969 36.4393C32.8906 36.3382 32.9883 36.2573 33.0195 36.2573C33.0508 36.2573 33.2305 36.0914 33.4219 35.8932C33.6133 35.6909 33.7891 35.5291 33.8164 35.5291C33.8711 35.5291 34.0703 35.3188 34.0703 35.2581C34.0703 35.2338 34.2734 35.0073 34.5195 34.7565C34.7656 34.5057 34.9688 34.2751 34.9688 34.2468C34.9688 34.2144 35.0469 34.1133 35.1445 34.0162C35.2422 33.915 35.3203 33.8139 35.3203 33.7816C35.3203 33.7492 35.3828 33.6642 35.457 33.5874C35.5313 33.5105 35.5938 33.4296 35.5938 33.4053C35.5938 33.3811 35.6563 33.3002 35.7305 33.2233C35.8047 33.1464 35.8672 33.0534 35.8672 33.0129C35.8672 32.9725 35.8867 32.9401 35.9063 32.9401C35.9297 32.9401 35.9453 32.9118 35.9453 32.8754C35.9453 32.839 35.9883 32.7662 36.043 32.7136C36.0977 32.661 36.1406 32.5963 36.1406 32.5639C36.1406 32.5316 36.168 32.483 36.1992 32.4547C36.2344 32.4264 36.2969 32.3172 36.3438 32.216C36.3867 32.1149 36.457 32.0016 36.4961 31.9652C36.5391 31.9288 36.5703 31.8722 36.5742 31.8438C36.5742 31.8115 36.6094 31.7306 36.6484 31.6659C36.7734 31.4555 36.8438 31.3099 36.8438 31.2532C36.8438 31.2249 36.8633 31.2006 36.8828 31.2006C36.9063 31.2006 36.9219 31.1764 36.9219 31.1481C36.9219 31.0752 37.0313 30.8447 37.082 30.8163C37.1016 30.8002 37.1172 30.7557 37.1172 30.7112C37.1172 30.6707 37.1367 30.6343 37.1563 30.6343C37.1797 30.6343 37.1953 30.5898 37.1953 30.5413C37.1953 30.4361 37.293 30.2055 37.3555 30.1691C37.375 30.1529 37.3906 30.1003 37.3906 30.0477C37.3906 29.9911 37.4258 29.8859 37.4688 29.805C37.5117 29.7241 37.5469 29.6189 37.5469 29.5623C37.5469 29.5097 37.5664 29.4531 37.5859 29.4409C37.6094 29.4288 37.625 29.3722 37.625 29.3236C37.625 29.271 37.6523 29.2063 37.6836 29.178C37.7188 29.1497 37.7422 29.0607 37.7422 28.9717C37.7422 28.8867 37.7617 28.8058 37.7813 28.7937C37.8047 28.7816 37.8203 28.7168 37.8203 28.6481C37.8203 28.5833 37.8398 28.5307 37.8594 28.5307C37.8828 28.5307 37.8984 28.4579 37.8984 28.3649C37.8984 28.2718 37.9258 28.1748 37.957 28.1424C37.9922 28.1019 38.0156 28.0049 38.0156 27.8794C38.0156 27.7702 38.0352 27.6812 38.0547 27.6812C38.0781 27.6812 38.0938 27.5801 38.0938 27.4587C38.0938 27.3374 38.1133 27.2362 38.1328 27.2362C38.1563 27.2362 38.1719 27.123 38.1719 26.9773C38.1719 26.8317 38.1875 26.7023 38.2109 26.6901C38.2344 26.6739 38.25 26.4717 38.25 26.2209C38.25 25.8649 38.2617 25.7718 38.3086 25.7557C38.3594 25.7354 38.3672 25.5736 38.3672 24.6472C38.3672 23.7209 38.3594 23.5591 38.3086 23.5388C38.2617 23.5227 38.25 23.4296 38.25 23.0736C38.25 22.8228 38.2344 22.6205 38.2109 22.6044C38.1914 22.5922 38.1719 22.4628 38.1719 22.3172C38.1719 22.1715 38.1563 22.0583 38.1328 22.0583C38.1133 22.0583 38.0938 21.9571 38.0938 21.8358C38.0938 21.7144 38.0781 21.6133 38.0547 21.6133C38.0352 21.6133 38.0156 21.5243 38.0156 21.415C38.0156 21.2896 37.9922 21.1926 37.957 21.1521C37.9258 21.1197 37.8984 21.0227 37.8984 20.9296C37.8984 20.8366 37.8828 20.7638 37.8594 20.7638C37.8398 20.7638 37.8203 20.7112 37.8203 20.6464C37.8203 20.5777 37.8047 20.5129 37.7813 20.5008C37.7617 20.4887 37.7422 20.4078 37.7422 20.3228C37.7422 20.2338 37.7188 20.1448 37.6836 20.1165C37.6523 20.0882 37.625 20.0154 37.625 19.9506C37.625 19.8859 37.6094 19.8333 37.5859 19.8333C37.5664 19.8333 37.5469 19.7888 37.5469 19.7322C37.5469 19.6796 37.5117 19.5704 37.4688 19.4895C37.4258 19.4086 37.3906 19.3034 37.3906 19.2468C37.3906 19.1942 37.375 19.1416 37.3555 19.1254C37.293 19.089 37.1953 18.8584 37.1953 18.7532C37.1953 18.7047 37.1797 18.6602 37.1563 18.6602C37.1367 18.6602 37.1172 18.6238 37.1172 18.5833C37.1172 18.5388 37.1016 18.4943 37.082 18.4782C37.0313 18.4498 36.9219 18.2193 36.9219 18.1464C36.9219 18.1181 36.9063 18.0938 36.8828 18.0938C36.8633 18.0938 36.8438 18.0615 36.8398 18.021C36.8398 17.9846 36.8047 17.8956 36.7656 17.8309C36.6523 17.6448 36.5703 17.479 36.5703 17.4385C36.5703 17.4183 36.5273 17.3536 36.4766 17.2969C36.4219 17.2362 36.3867 17.1756 36.3945 17.1594C36.4063 17.1432 36.3867 17.1108 36.3555 17.0825C36.3242 17.0542 36.2969 17.0097 36.2969 16.9814C36.2969 16.9571 36.2617 16.9005 36.2188 16.86C36.1758 16.8196 36.1406 16.7629 36.1406 16.7306C36.1406 16.6982 36.0977 16.6335 36.043 16.5809C35.9883 16.5283 35.9453 16.4676 35.9453 16.4474C35.9453 16.3665 35.8281 16.1683 35.7109 16.051C35.6484 15.9862 35.5938 15.9094 35.5938 15.8811C35.5938 15.8487 35.5313 15.7718 35.457 15.7031C35.3828 15.6343 35.3203 15.5494 35.3203 15.517C35.3203 15.4846 35.2422 15.3794 35.1445 15.2783C35.0469 15.1812 34.9688 15.0801 34.9688 15.0518C34.9688 15.0235 34.7656 14.7888 34.5195 14.534C34.2734 14.2791 34.0703 14.0485 34.0703 14.0283C34.0703 13.9717 33.8672 13.7654 33.8125 13.7654C33.793 13.7654 33.6172 13.5995 33.4258 13.4013C33.2344 13.199 33.0508 13.0372 33.0195 13.0372C32.9883 13.0372 32.8906 12.9563 32.7969 12.8552C32.707 12.754 32.6094 12.6731 32.5781 12.6731C32.5469 12.6731 32.4805 12.6286 32.4297 12.572C32.3789 12.5154 32.3164 12.4709 32.293 12.4709C32.2695 12.4709 32.1914 12.4061 32.1172 12.3293C32.043 12.2524 31.957 12.1877 31.9219 12.1877C31.8906 12.1877 31.8359 12.1513 31.8047 12.1068C31.7734 12.0623 31.7188 12.0259 31.6836 12.0259C31.6484 12.0259 31.5859 11.9814 31.5469 11.9248C31.5078 11.8681 31.4531 11.8236 31.4297 11.8236C31.3555 11.8236 31.1563 11.7063 31.082 11.6214C31.043 11.5769 30.9805 11.5405 30.9375 11.5405C30.8984 11.5405 30.8672 11.5202 30.8672 11.5C30.8672 11.4757 30.8359 11.4595 30.7969 11.4595C30.7539 11.4595 30.6914 11.4231 30.6523 11.3786C30.5742 11.2896 30.375 11.1764 30.293 11.1764C30.2656 11.1764 30.2422 11.1561 30.2422 11.1359C30.2422 11.1116 30.2109 11.0955 30.168 11.0955C30.1289 11.0955 30.0742 11.0671 30.0469 11.0348C30.0195 11.0024 29.957 10.9741 29.9063 10.9741C29.8594 10.9741 29.8047 10.9539 29.793 10.9337C29.7813 10.9094 29.7344 10.8932 29.6914 10.8932C29.6523 10.8932 29.6172 10.873 29.6172 10.8527C29.6172 10.8285 29.5859 10.8123 29.5508 10.8082C29.5117 10.8082 29.4297 10.7718 29.3633 10.7314C29.1367 10.5858 29.0195 10.5291 28.9297 10.5291C28.8789 10.5291 28.8281 10.5089 28.8164 10.4887C28.8047 10.4644 28.7422 10.4482 28.6758 10.4482C28.6133 10.4482 28.5625 10.428 28.5625 10.4078C28.5625 10.3835 28.5117 10.3673 28.4492 10.3673C28.3828 10.3673 28.3242 10.3511 28.3086 10.3309C28.2734 10.2662 28.0508 10.165 27.9531 10.165C27.9023 10.165 27.8516 10.1448 27.8398 10.1246C27.8281 10.1003 27.75 10.0841 27.668 10.0841C27.582 10.0841 27.4961 10.0599 27.4688 10.0235C27.4414 9.9911 27.3789 9.96278 27.3281 9.96278C27.2813 9.96278 27.2266 9.94255 27.2148 9.92233C27.2031 9.89806 27.1211 9.88187 27.0391 9.88187C26.957 9.88187 26.875 9.86165 26.8633 9.84142C26.8516 9.81715 26.7539 9.80097 26.6484 9.80097C26.543 9.80097 26.4453 9.78074 26.4336 9.76052C26.4219 9.73624 26.3242 9.72006 26.2227 9.72006C26.1016 9.72006 26.0156 9.69984 25.9844 9.65938C25.9492 9.61488 25.8555 9.5987 25.6484 9.5987C25.4922 9.5987 25.3516 9.57848 25.3398 9.55825C25.3242 9.53398 25.1328 9.5178 24.8867 9.5178C24.6289 9.5178 24.4609 9.50162 24.4609 9.47734C24.4609 9.45307 24.0664 9.43689 23.3516 9.43689C22.6523 9.43689 22.2305 9.45307 22.2148 9.47734Z"
        fill="white" />
    <path
        d="M7.50781 18.8786C7.48047 18.9191 7.39844 18.9434 7.30859 18.9434C7.22266 18.9434 7.15625 18.9595 7.15625 18.9838C7.15625 19.004 7.07812 19.0243 6.98047 19.0243C6.88281 19.0243 6.80469 19.0404 6.80469 19.0647C6.80469 19.089 6.70312 19.1052 6.57812 19.1052C6.36328 19.1052 6.13281 19.182 6.08203 19.271C6.06641 19.2913 6.02344 19.3074 5.98047 19.3074C5.94141 19.3074 5.90625 19.3236 5.90625 19.3479C5.90625 19.3681 5.875 19.3883 5.83594 19.3883C5.79297 19.3883 5.73047 19.4248 5.69141 19.4693C5.61328 19.5582 5.41406 19.6715 5.33203 19.6715C5.30469 19.6715 5.28125 19.6877 5.28125 19.712C5.28125 19.7322 5.24609 19.7524 5.20312 19.7524C5.16016 19.7524 5.125 19.7686 5.125 19.7929C5.125 19.8131 5.09375 19.8333 5.05469 19.8333C5.01172 19.8333 4.94922 19.8697 4.91016 19.9142C4.83984 19.9951 4.63672 20.1165 4.57031 20.1165C4.55078 20.1165 4.50781 20.1448 4.47266 20.1772C4.44141 20.2095 4.40234 20.2298 4.38281 20.2176C4.36328 20.2055 4.31641 20.2419 4.27344 20.2985C4.23047 20.3552 4.17969 20.3997 4.16015 20.3997C4.10547 20.3997 3.8789 20.521 3.85547 20.5655C3.83984 20.5858 3.79687 20.6019 3.7539 20.6019C3.71484 20.6019 3.67969 20.6181 3.67969 20.6424C3.67969 20.6626 3.64844 20.6828 3.60937 20.6828C3.57031 20.6828 3.48047 20.7476 3.40625 20.8244C3.33203 20.9013 3.2539 20.966 3.23047 20.966C3.20703 20.966 3.10937 21.0469 3.01562 21.1481C2.92187 21.2492 2.82031 21.3301 2.78906 21.3301C2.76172 21.3301 2.66015 21.411 2.57031 21.5121C2.47656 21.6133 2.375 21.6942 2.34765 21.6942C2.3164 21.6942 2.19922 21.7953 2.08203 21.9167C1.96484 22.038 1.85156 22.1392 1.82812 22.1392C1.80078 22.1392 1.69531 22.2282 1.58984 22.3414C1.48437 22.4506 1.375 22.5437 1.34765 22.5437C1.32031 22.5437 1.22656 22.6246 1.13281 22.7257C1.03906 22.8269 0.941405 22.9078 0.914061 22.9078C0.843748 22.9078 0.664061 23.1019 0.687498 23.1464C0.703123 23.1667 0.742186 23.1748 0.781248 23.1626C0.820311 23.1545 0.874998 23.1748 0.902342 23.2071C0.937498 23.2516 1.02344 23.2718 1.16406 23.2718C1.28125 23.2718 1.375 23.288 1.375 23.3123C1.375 23.3325 1.47265 23.3527 1.58984 23.3527C1.70703 23.3527 1.80469 23.3689 1.80469 23.3932C1.80469 23.4134 1.89844 23.4337 2.01562 23.4337C2.15234 23.4337 2.24219 23.4539 2.27344 23.4943C2.30469 23.5348 2.39062 23.555 2.51172 23.555C2.61328 23.555 2.71094 23.5712 2.72265 23.5955C2.73437 23.6157 2.83203 23.6359 2.9375 23.6359C3.04297 23.6359 3.14062 23.6521 3.15234 23.6764C3.16406 23.6966 3.22656 23.7168 3.29297 23.7168C3.35547 23.7168 3.40625 23.733 3.40625 23.7573C3.40625 23.7775 3.4414 23.7977 3.48047 23.7977C3.52344 23.7977 3.5664 23.8139 3.58203 23.8341C3.60937 23.8867 3.83203 24 3.90234 24C3.92969 24 3.95312 24.0162 3.95312 24.0404C3.95312 24.0607 3.98437 24.0809 4.02734 24.0809C4.0664 24.0809 4.12109 24.1092 4.14844 24.1416C4.17578 24.1739 4.21875 24.2023 4.24609 24.2023C4.27344 24.2023 4.31641 24.2306 4.34766 24.267C4.375 24.3034 4.48437 24.3681 4.58594 24.4167C4.6875 24.4612 4.77344 24.5137 4.77344 24.534C4.77344 24.5502 4.80078 24.5663 4.83203 24.5663C4.86328 24.5663 4.94922 24.6027 5.02734 24.6472C5.10547 24.6917 5.19141 24.7282 5.22266 24.7282C5.25391 24.7282 5.28125 24.7443 5.28125 24.7646C5.28125 24.7848 5.32031 24.8171 5.37109 24.8333C5.41797 24.8495 5.48437 24.894 5.51953 24.9345C5.55469 24.979 5.60156 25.0113 5.62109 25.0113C5.67578 25.0113 5.90234 25.1327 5.92578 25.1772C5.94141 25.1974 5.98437 25.2136 6.02734 25.2136C6.06641 25.2136 6.10156 25.2298 6.10156 25.254C6.10156 25.2743 6.12891 25.2945 6.16016 25.2945C6.19141 25.2945 6.27734 25.3309 6.35547 25.3754C6.43359 25.4199 6.50391 25.4563 6.51172 25.4563C6.52344 25.4563 6.53125 25.2743 6.53125 25.0518C6.53125 24.8091 6.54687 24.6472 6.57031 24.6472C6.59375 24.6472 6.60937 24.3641 6.60937 23.8827C6.60937 23.2557 6.62109 23.11 6.66797 23.0696C6.71484 23.0291 6.72656 22.9239 6.72656 22.6003C6.72656 22.3657 6.74219 22.1715 6.76562 22.1594C6.78906 22.1472 6.80469 22.0825 6.80469 22.0178C6.80469 21.9531 6.82422 21.8883 6.84375 21.8762C6.86719 21.8641 6.88281 21.7993 6.88281 21.7346C6.88281 21.6739 6.91016 21.6133 6.94141 21.5971C6.97656 21.5849 7 21.5243 7 21.4555C7 21.3908 7.01953 21.322 7.03906 21.3099C7.0625 21.2977 7.07812 21.233 7.07812 21.1642C7.07812 21.0995 7.09766 21.0469 7.11719 21.0469C7.14062 21.0469 7.15625 20.9943 7.15625 20.9296C7.15625 20.8608 7.17578 20.7961 7.19531 20.784C7.21875 20.7718 7.23437 20.6909 7.23437 20.606C7.23437 20.517 7.25781 20.428 7.29297 20.3997C7.32422 20.3714 7.35156 20.2985 7.35156 20.2338C7.35156 20.1691 7.37109 20.1165 7.39062 20.1165C7.41406 20.1165 7.42969 20.0639 7.42969 19.9992C7.42969 19.9304 7.44922 19.8657 7.46875 19.8536C7.49219 19.8414 7.50781 19.7767 7.50781 19.716C7.50781 19.6513 7.53516 19.5785 7.56641 19.5502C7.59766 19.5218 7.625 19.4571 7.625 19.4045C7.625 19.356 7.64453 19.2993 7.66406 19.2872C7.6875 19.2751 7.70312 19.2104 7.70312 19.1416C7.70312 19.0769 7.72266 19.0243 7.74609 19.0243C7.76953 19.0243 7.78125 18.9838 7.77344 18.9312C7.75781 18.822 7.58594 18.7856 7.50781 18.8786Z"
        fill="white" />
    <path
        d="M39.6172 22.8066C39.6172 22.9078 39.6367 22.9887 39.6563 22.9887C39.6797 22.9887 39.6953 23.1222 39.6953 23.3123C39.6953 23.5024 39.7109 23.6359 39.7344 23.6359C39.7578 23.6359 39.7734 23.7856 39.7734 24C39.7734 24.2144 39.7891 24.3641 39.8125 24.3641C39.8359 24.3641 39.8516 24.4895 39.8516 24.6634C39.8516 24.8778 39.8672 24.9749 39.9102 25.0113C39.9492 25.0437 39.9688 25.1367 39.9688 25.2945C39.9688 25.4523 39.9492 25.5453 39.9102 25.5777C39.875 25.606 39.8516 25.695 39.8516 25.784C39.8516 25.873 39.8359 25.9417 39.8125 25.9417C39.793 25.9417 39.7734 26.0226 39.7734 26.1238C39.7734 26.2249 39.7578 26.3058 39.7344 26.3058C39.7148 26.3058 39.6953 26.4029 39.6953 26.5243C39.6953 26.6456 39.6797 26.7589 39.6563 26.771C39.6367 26.7832 39.6172 26.8681 39.6172 26.9571C39.6172 27.0623 39.5977 27.127 39.5586 27.1392C39.5195 27.1553 39.5 27.2201 39.5 27.3414C39.5 27.4385 39.4844 27.5194 39.4609 27.5194C39.4414 27.5194 39.4219 27.6205 39.4219 27.7419C39.4219 27.8633 39.4063 27.9644 39.3828 27.9644C39.3633 27.9644 39.3438 28.0372 39.3438 28.1303C39.3438 28.2273 39.3164 28.3204 39.2813 28.3568C39.2422 28.3972 39.2266 28.466 39.2344 28.5388C39.2461 28.6036 39.2305 28.6723 39.1992 28.6966C39.1719 28.7209 39.1484 28.7937 39.1484 28.8584C39.1484 28.9717 39.1563 28.9757 39.3203 28.9757C39.418 28.9757 39.5078 28.9555 39.5195 28.9353C39.5313 28.911 39.6758 28.8948 39.8359 28.8948C40.0039 28.8948 40.125 28.8786 40.125 28.8544C40.125 28.8301 40.2461 28.8139 40.4141 28.8139C40.6211 28.8139 40.7148 28.7977 40.75 28.7532C40.7852 28.7087 40.8789 28.6926 41.0859 28.6926C41.2422 28.6926 41.3828 28.6723 41.3945 28.6521C41.4063 28.6278 41.5508 28.6116 41.7109 28.6116C41.8789 28.6116 42 28.5955 42 28.5712C42 28.5469 42.1289 28.5307 42.3086 28.5307C42.5469 28.5307 42.6211 28.5186 42.6406 28.4701C42.6563 28.4256 42.7266 28.4094 42.918 28.4094C43.0625 28.4094 43.1719 28.3932 43.1719 28.3689C43.1719 28.3447 43.3008 28.3285 43.4844 28.3285C43.668 28.3285 43.7969 28.3123 43.7969 28.288C43.7969 28.2637 43.918 28.2476 44.0859 28.2476C44.2461 28.2476 44.3906 28.2273 44.4023 28.2071C44.4141 28.1828 44.5547 28.1667 44.7109 28.1667C44.918 28.1667 45.0117 28.1505 45.0469 28.106C45.082 28.0615 45.1758 28.0453 45.3828 28.0453C45.5508 28.0453 45.6719 28.0291 45.6719 28.0048C45.6719 27.9806 45.75 27.9644 45.8477 27.9644C45.9453 27.9644 46.0234 27.9563 46.0234 27.9442C46.0234 27.8997 45.7852 27.6812 45.7383 27.6812C45.7109 27.6812 45.6094 27.6003 45.5156 27.4992C45.4219 27.3981 45.3242 27.3171 45.3008 27.3171C45.2773 27.3171 45.1797 27.2362 45.0859 27.1351C44.9922 27.034 44.8906 26.9531 44.8633 26.9531C44.8359 26.9531 44.7344 26.8722 44.6445 26.771C44.5508 26.6699 44.4492 26.589 44.4141 26.589C44.3828 26.589 44.2891 26.5081 44.2031 26.407C44.1211 26.3099 44.0234 26.2249 43.9922 26.2249C43.957 26.2249 43.8516 26.144 43.7578 26.0429C43.6641 25.9417 43.5664 25.8608 43.543 25.8608C43.5195 25.8608 43.4102 25.7718 43.3047 25.6586C43.1992 25.5493 43.0898 25.4563 43.0625 25.4563C43.0352 25.4563 42.9141 25.3552 42.8008 25.2338C42.6836 25.1125 42.5664 25.0113 42.5352 25.0113C42.5078 25.0113 42.4063 24.9304 42.3125 24.8293C42.2188 24.7282 42.1211 24.6472 42.0977 24.6472C42.0742 24.6472 41.9766 24.5663 41.8828 24.4652C41.7891 24.3641 41.6875 24.2832 41.6641 24.2832C41.6367 24.2832 41.5352 24.2023 41.4414 24.1011C41.3438 24 41.2422 23.9191 41.2109 23.9191C41.1836 23.9191 41.0859 23.8382 40.9922 23.7371C40.8984 23.6359 40.8047 23.555 40.7773 23.555C40.75 23.555 40.6406 23.466 40.5352 23.3527C40.4336 23.2435 40.3359 23.1626 40.3203 23.1707C40.3047 23.1788 40.207 23.0979 40.1016 22.9887C39.9961 22.8794 39.8828 22.7864 39.8516 22.7864C39.8164 22.7864 39.7656 22.75 39.7344 22.7055C39.6484 22.5801 39.6172 22.6084 39.6172 22.8066Z"
        fill="white" />
    <path
        d="M6.85547 32.1917C6.82813 32.2241 6.80469 32.2646 6.80469 32.2848C6.80469 32.3414 6.6875 32.572 6.64453 32.5963C6.625 32.6125 6.60938 32.657 6.60938 32.7015C6.60938 32.7419 6.59375 32.7783 6.57031 32.7783C6.55078 32.7783 6.53125 32.8147 6.53125 32.8592C6.53125 32.9037 6.51563 32.9401 6.49219 32.9401C6.47266 32.9401 6.45313 32.9725 6.45313 33.0129C6.45313 33.0574 6.41797 33.1222 6.375 33.1626C6.28906 33.2435 6.17969 33.4498 6.17969 33.5348C6.17969 33.5631 6.16406 33.5874 6.14063 33.5874C6.12109 33.5874 6.10156 33.6197 6.10156 33.6642C6.10156 33.7047 6.07422 33.7613 6.04297 33.7896C6.01172 33.818 5.98438 33.8625 5.98438 33.8908C5.98438 33.915 5.94922 33.9717 5.90625 34.0121C5.86328 34.0526 5.82813 34.1173 5.82813 34.1618C5.82813 34.2023 5.8125 34.2346 5.78906 34.2346C5.76953 34.2346 5.75 34.271 5.75 34.3115C5.75 34.356 5.73438 34.4005 5.71484 34.4126C5.67188 34.4409 5.47656 34.8374 5.47656 34.894C5.47656 34.9142 5.43359 34.9749 5.37891 35.0275C5.32422 35.0801 5.28125 35.1367 5.28125 35.157C5.28125 35.2095 5.08203 35.606 5.04297 35.6343C5.02344 35.6464 5.00781 35.6869 5.00781 35.7233C5.00781 35.7638 4.97266 35.8204 4.92969 35.8528C4.88672 35.8851 4.85156 35.9417 4.85156 35.9741C4.85156 36.0105 4.80859 36.0833 4.75391 36.1359C4.69922 36.1885 4.65625 36.2532 4.65625 36.2775C4.65625 36.3058 4.62109 36.3584 4.57813 36.3989C4.53516 36.4393 4.5 36.496 4.5 36.5283C4.5 36.5607 4.45703 36.6254 4.40234 36.678C4.34766 36.7306 4.30469 36.7994 4.30469 36.8317C4.30469 36.8641 4.24219 36.949 4.16797 37.0259C4.09375 37.1028 4.03125 37.1837 4.03125 37.2079C4.03125 37.2362 3.99609 37.2888 3.95313 37.3293C3.91016 37.3697 3.875 37.4223 3.875 37.4506C3.875 37.4749 3.83203 37.5396 3.77734 37.5922C3.72266 37.6448 3.67969 37.7176 3.67969 37.754C3.67969 37.7864 3.64453 37.843 3.60156 37.8754C3.55859 37.9078 3.52344 37.9644 3.52344 38.0049C3.52344 38.0413 3.50781 38.0858 3.48438 38.0979C3.46484 38.11 3.44531 38.1384 3.44531 38.1626C3.44531 38.2112 3.82422 38.2112 3.85547 38.1586C3.87109 38.1343 4.0625 38.1181 4.30469 38.1181C4.54688 38.1181 4.73828 38.1019 4.75391 38.0777C4.76563 38.0534 4.94141 38.0372 5.14063 38.0372C5.41797 38.0372 5.51953 38.021 5.55469 37.9765C5.59375 37.928 5.69922 37.9159 6.02734 37.9159C6.28516 37.9159 6.45313 37.8997 6.45313 37.8754C6.45313 37.8511 6.65625 37.835 6.98047 37.835C7.30469 37.835 7.50781 37.8188 7.50781 37.7945C7.50781 37.7702 7.70703 37.754 8.02734 37.754C8.35547 37.754 8.5625 37.7379 8.58984 37.7095C8.61719 37.6812 8.80859 37.665 9.11719 37.6691C9.51563 37.6772 9.61328 37.665 9.65625 37.6125C9.69531 37.5639 9.80078 37.5518 10.207 37.5518C10.4961 37.5518 10.7148 37.5356 10.7305 37.5113C10.7422 37.4871 10.8672 37.4709 11.0078 37.4709C11.1445 37.4709 11.2578 37.4587 11.2578 37.4385C11.2578 37.3859 10.2617 36.3786 10.2109 36.3786C10.1445 36.3786 9.03125 35.2217 9.03125 35.157C9.03125 35.1246 8.93359 35.0073 8.81641 34.89C8.69922 34.7727 8.60156 34.6553 8.60156 34.627C8.60156 34.5987 8.49609 34.4693 8.36719 34.3358C8.23828 34.2023 8.13281 34.0728 8.13281 34.0485C8.13281 34.0202 8.07031 33.9393 7.99609 33.8665C7.92188 33.7896 7.85938 33.7006 7.85938 33.6602C7.85938 33.6197 7.84375 33.5874 7.82031 33.5874C7.80078 33.5874 7.78125 33.555 7.78125 33.5146C7.78125 33.4741 7.73828 33.3972 7.68359 33.3447C7.63281 33.2961 7.59766 33.2395 7.60547 33.2233C7.61328 33.2071 7.57813 33.1505 7.52734 33.1019C7.47266 33.0494 7.42969 32.9725 7.42969 32.932C7.42969 32.8916 7.41406 32.8592 7.39063 32.8592C7.37109 32.8592 7.35156 32.8228 7.35156 32.7824C7.35156 32.7379 7.30859 32.6691 7.25391 32.6246C7.19922 32.5801 7.15625 32.5154 7.15625 32.483C7.15625 32.4466 7.14063 32.4061 7.11719 32.394C7.09766 32.3819 7.07813 32.3414 7.07813 32.305C7.07813 32.2484 6.97266 32.1351 6.92188 32.1351C6.91016 32.1351 6.87891 32.1594 6.85547 32.1917Z"
        fill="white" />
    <path
        d="M36.0977 35.1529C36.0156 35.2621 35.9453 35.3997 35.9453 35.4604C35.9453 35.4887 35.9102 35.5372 35.8672 35.5696C35.8242 35.6019 35.7891 35.6586 35.7891 35.699C35.7891 35.7354 35.7734 35.7759 35.7539 35.7921C35.7109 35.8163 35.5938 36.051 35.5938 36.1076C35.5938 36.1278 35.5508 36.1804 35.4961 36.2249C35.4414 36.2694 35.3984 36.3382 35.3984 36.3827C35.3984 36.4231 35.3828 36.4595 35.3594 36.4595C35.3398 36.4595 35.3203 36.4919 35.3203 36.5324C35.3203 36.6214 35.2031 36.7427 35.1211 36.7427C35.0898 36.7427 35.0391 36.7791 35.0078 36.8236C34.9766 36.8681 34.9219 36.9045 34.8867 36.9045C34.8477 36.9045 34.7852 36.949 34.7422 37.0057C34.6992 37.0623 34.6406 37.1068 34.6094 37.1068C34.5781 37.1068 34.4961 37.1715 34.4219 37.2484C34.3477 37.3252 34.2695 37.39 34.2461 37.39C34.2188 37.39 34.168 37.4264 34.1289 37.4709C34.0898 37.5154 34.0352 37.5518 34.0039 37.5518C33.9727 37.5518 33.9102 37.5963 33.8594 37.6529C33.8086 37.7095 33.7422 37.754 33.7109 37.754C33.6797 37.754 33.6211 37.7905 33.582 37.8349C33.543 37.8794 33.4922 37.9159 33.4648 37.9159C33.4414 37.9159 33.3789 37.9604 33.3281 38.017C33.2773 38.0736 33.2109 38.1181 33.1797 38.1181C33.1484 38.1181 33.0703 38.1828 33.0039 38.2597C32.9414 38.3366 32.8594 38.4013 32.8242 38.4013C32.7891 38.4013 32.7344 38.4377 32.7031 38.4822C32.6719 38.5267 32.6172 38.5631 32.582 38.5631C32.5469 38.5631 32.4883 38.5995 32.4492 38.644C32.3711 38.733 32.1719 38.8463 32.0898 38.8463C32.0625 38.8463 32.0391 38.8625 32.0391 38.8867C32.0391 38.907 32.0078 38.9272 31.9648 38.9272C31.9258 38.9272 31.8711 38.9555 31.8438 38.9879C31.8164 39.0202 31.7461 39.0485 31.6836 39.0485C31.6211 39.0485 31.5703 39.0647 31.5703 39.089C31.5703 39.1092 31.5352 39.1294 31.4922 39.1294C31.4492 39.1294 31.4141 39.1456 31.4141 39.1699C31.4141 39.1901 31.3633 39.2104 31.3008 39.2104C31.2383 39.2104 31.168 39.2387 31.1406 39.271C31.1133 39.3034 31.0508 39.3317 31 39.3317C30.9492 39.3317 30.8477 39.3681 30.7695 39.4126C30.6914 39.4571 30.6055 39.4935 30.5742 39.4935C30.543 39.4935 30.5156 39.5097 30.5156 39.5259C30.5156 39.5825 30.6523 39.6958 30.7227 39.6958C30.7578 39.6958 30.7891 39.712 30.7891 39.7362C30.7891 39.7565 30.8125 39.7767 30.8398 39.7767C30.9102 39.7767 31.1328 39.89 31.1602 39.9426C31.1758 39.9628 31.1992 39.9709 31.2188 39.9587C31.2344 39.9466 31.2695 39.9668 31.2969 39.9992C31.3242 40.0316 31.3789 40.0599 31.418 40.0599C31.4609 40.0599 31.4922 40.076 31.4922 40.1003C31.4922 40.1205 31.5156 40.1408 31.543 40.1408C31.625 40.1408 31.8242 40.254 31.9023 40.343C31.9414 40.3875 32.0039 40.4239 32.0469 40.4239C32.0859 40.4239 32.1172 40.4401 32.1172 40.4644C32.1172 40.4846 32.1484 40.5049 32.1914 40.5049C32.2305 40.5049 32.2852 40.5332 32.3125 40.5655C32.3398 40.5979 32.375 40.6181 32.3906 40.606C32.4102 40.5938 32.4336 40.6019 32.4492 40.6222C32.4766 40.6748 32.6992 40.788 32.7695 40.788C32.7969 40.788 32.8203 40.8042 32.8203 40.8285C32.8203 40.8487 32.8555 40.8689 32.8945 40.8689C32.9375 40.8689 32.9805 40.8851 32.9961 40.9053C33.0234 40.9579 33.2461 41.0712 33.3164 41.0712C33.3438 41.0712 33.3672 41.0874 33.3672 41.1116C33.3672 41.1319 33.4023 41.1521 33.4414 41.1521C33.4844 41.1521 33.5312 41.1683 33.543 41.1926C33.5547 41.2128 33.6094 41.233 33.6562 41.233C33.707 41.233 33.7695 41.2613 33.7969 41.2937C33.8242 41.326 33.8789 41.3544 33.918 41.3544C33.9609 41.3544 33.9922 41.3705 33.9922 41.3948C33.9922 41.415 34.043 41.4353 34.1055 41.4353C34.1719 41.4353 34.2344 41.4515 34.2461 41.4757C34.2578 41.496 34.3203 41.5162 34.3828 41.5162C34.4453 41.5162 34.5039 41.5324 34.5195 41.5526C34.5547 41.6173 34.7773 41.7184 34.8789 41.7184C34.9258 41.7184 34.9688 41.7346 34.9688 41.7589C34.9688 41.7791 35.0039 41.7994 35.043 41.7994C35.0859 41.7994 35.1328 41.8155 35.1445 41.8398C35.1562 41.86 35.2109 41.8803 35.2578 41.8803C35.3086 41.8803 35.3711 41.9086 35.3984 41.9409C35.4258 41.9733 35.4805 42.0016 35.5195 42.0016C35.5625 42.0016 35.5938 42.0178 35.5938 42.0421C35.5938 42.0623 35.6445 42.0825 35.707 42.0825C35.7734 42.0825 35.8359 42.0987 35.8477 42.123C35.8594 42.1432 35.9219 42.1634 35.9805 42.1634C36.043 42.1634 36.1133 42.1917 36.1406 42.2241C36.168 42.2565 36.2031 42.2767 36.2188 42.2646C36.2344 42.2524 36.2695 42.2727 36.2969 42.305C36.3242 42.3374 36.3945 42.3657 36.457 42.3657C36.5195 42.3657 36.5703 42.3819 36.5703 42.4061C36.5703 42.4264 36.6055 42.4466 36.6445 42.4466C36.6875 42.4466 36.7344 42.4668 36.7461 42.4871C36.7578 42.5113 36.8203 42.5275 36.8828 42.5275C36.9414 42.5275 37 42.5558 37.0156 42.5882C37.0273 42.6205 37.0742 42.6489 37.1172 42.6489C37.1602 42.6489 37.1953 42.665 37.1953 42.6893C37.1953 42.7095 37.2578 42.7298 37.332 42.7298C37.4062 42.7298 37.4688 42.746 37.4688 42.7702C37.4688 42.7905 37.5039 42.8107 37.543 42.8107C37.5859 42.8107 37.6328 42.8269 37.6445 42.8511C37.6562 42.8714 37.7109 42.8916 37.7578 42.8916C37.8086 42.8916 37.8711 42.9199 37.8984 42.9523C37.9258 42.9846 37.9961 43.0129 38.0586 43.0129C38.1211 43.0129 38.1719 43.0291 38.1719 43.0534C38.1719 43.0736 38.207 43.0938 38.2461 43.0938C38.2891 43.0938 38.3359 43.11 38.3477 43.1343C38.3594 43.1545 38.4258 43.1748 38.4883 43.1748C38.5547 43.1748 38.6133 43.199 38.625 43.2354C38.6406 43.2678 38.6797 43.2961 38.7148 43.2961C38.75 43.2961 38.8008 43.3163 38.8242 43.3406C38.8516 43.3689 38.8984 43.377 38.9297 43.3649C39.0117 43.3325 39.0117 43.0817 38.9336 43.0129C38.8945 42.9765 38.875 42.8835 38.875 42.7055C38.875 42.5599 38.8594 42.4466 38.8359 42.4466C38.8125 42.4466 38.7969 42.3333 38.7969 42.1877C38.7969 42.0421 38.7812 41.9126 38.7578 41.9005C38.7383 41.8883 38.7188 41.7589 38.7188 41.6133C38.7188 41.4676 38.7031 41.3544 38.6797 41.3544C38.6562 41.3544 38.6406 41.2411 38.6406 41.0955C38.6406 40.9175 38.6211 40.8244 38.582 40.788C38.543 40.7557 38.5234 40.6626 38.5234 40.5008C38.5234 40.3714 38.5078 40.254 38.4844 40.2419C38.4648 40.2298 38.4453 40.1165 38.4453 39.9951C38.4453 39.8738 38.4297 39.7767 38.4062 39.7767C38.3867 39.7767 38.3672 39.7241 38.3672 39.6594C38.3672 39.5947 38.3398 39.5218 38.3086 39.4935C38.2773 39.4652 38.25 39.3924 38.25 39.3277C38.25 39.2629 38.2344 39.2104 38.2109 39.2104C38.1914 39.2104 38.1719 39.1578 38.1719 39.093C38.1719 39.0243 38.1562 38.9595 38.1328 38.9474C38.1133 38.9353 38.0938 38.8705 38.0938 38.8018C38.0938 38.7371 38.0781 38.6845 38.0547 38.6845C38.0352 38.6845 38.0156 38.6319 38.0156 38.5672C38.0156 38.5024 37.9883 38.4296 37.957 38.4013C37.9258 38.373 37.8984 38.3002 37.8984 38.2354C37.8984 38.1707 37.8828 38.1181 37.8594 38.1181C37.8398 38.1181 37.8203 38.0534 37.8203 37.9765C37.8203 37.8997 37.8047 37.8349 37.7812 37.8349C37.7617 37.8349 37.7422 37.7824 37.7422 37.7176C37.7422 37.6529 37.7148 37.5801 37.6836 37.5518C37.6523 37.5235 37.625 37.4506 37.625 37.3859C37.625 37.3212 37.6094 37.2686 37.5859 37.2686C37.5664 37.2686 37.5469 37.2322 37.5469 37.1877C37.5469 37.1432 37.5312 37.1068 37.5078 37.1068C37.4883 37.1068 37.4688 37.0825 37.4688 37.0542C37.4688 36.9814 37.3594 36.7508 37.3086 36.7225C37.2891 36.7063 37.2734 36.6618 37.2734 36.6173C37.2734 36.5769 37.2578 36.5405 37.2344 36.5405C37.2148 36.5405 37.1953 36.5162 37.1953 36.4879C37.1953 36.3908 37.0859 36.2006 36.9609 36.0752C36.8984 36.0105 36.8438 35.9377 36.8438 35.9134C36.8438 35.8892 36.7383 35.7557 36.6094 35.6181C36.4805 35.4806 36.375 35.3471 36.375 35.3228C36.375 35.2864 36.2031 35.0841 36.168 35.0841C36.1602 35.0841 36.1289 35.1165 36.0977 35.1529Z"
        fill="white" />
    <path
        d="M18.7578 40.9053C18.7578 40.9296 18.7773 40.9579 18.7969 40.9701C18.8203 40.9822 18.8359 41.0307 18.8359 41.0752C18.8359 41.1157 18.8555 41.1521 18.875 41.1521C18.8984 41.1521 18.9141 41.1885 18.9141 41.229C18.9141 41.2735 18.9297 41.318 18.9492 41.3341C19 41.3625 19.1094 41.593 19.1094 41.6659C19.1094 41.6942 19.1289 41.7184 19.1484 41.7184C19.1719 41.7184 19.1875 41.7508 19.1914 41.7872C19.1914 41.8277 19.2266 41.9126 19.2656 41.9814C19.3906 42.1917 19.4609 42.3374 19.4609 42.394C19.4609 42.4223 19.4805 42.4466 19.5 42.4466C19.5234 42.4466 19.5391 42.483 19.5391 42.5235C19.5391 42.568 19.5547 42.6125 19.5742 42.6286C19.625 42.657 19.7344 42.8875 19.7344 42.9604C19.7344 42.9887 19.7539 43.0129 19.7734 43.0129C19.7969 43.0129 19.8125 43.0494 19.8125 43.0938C19.8125 43.1383 19.832 43.1748 19.8516 43.1748C19.875 43.1748 19.8906 43.2112 19.8906 43.2516C19.8906 43.2961 19.9063 43.3406 19.9258 43.3568C19.9688 43.3811 20.0859 43.6116 20.0859 43.6683C20.0859 43.6885 20.1289 43.7492 20.1836 43.8058C20.2383 43.8625 20.2813 43.9312 20.2813 43.9636C20.2813 43.996 20.3008 44.0243 20.3203 44.0243C20.3438 44.0243 20.3594 44.0607 20.3594 44.1011C20.3594 44.1456 20.3789 44.1942 20.3984 44.2063C20.4219 44.2184 20.4375 44.267 20.4375 44.3115C20.4375 44.3519 20.457 44.3883 20.4766 44.3883C20.5 44.3883 20.5156 44.4248 20.5156 44.4693C20.5156 44.5138 20.543 44.5623 20.5742 44.5744C20.6055 44.5906 20.6328 44.623 20.6328 44.6553C20.6328 44.6837 20.668 44.7727 20.7109 44.8536C20.7539 44.9345 20.7891 45.0154 20.7891 45.0396C20.7891 45.0639 20.832 45.1205 20.8867 45.165C20.9414 45.2095 20.9844 45.2783 20.9844 45.3228C20.9844 45.3633 21.0039 45.3997 21.0234 45.3997C21.0469 45.3997 21.0625 45.4239 21.0625 45.4523C21.0625 45.5251 21.1719 45.7557 21.2227 45.784C21.2422 45.8002 21.2578 45.8447 21.2578 45.8892C21.2578 45.9296 21.2773 45.966 21.2969 45.966C21.3203 45.966 21.3359 45.9903 21.3359 46.0186C21.3359 46.0955 21.4453 46.3139 21.5117 46.3705C21.5547 46.407 21.582 46.407 21.6289 46.3584C21.6602 46.322 21.6875 46.2694 21.6875 46.2371C21.6875 46.2047 21.7227 46.1481 21.7656 46.1076C21.8125 46.0631 21.875 45.9701 21.9102 45.8972C21.9414 45.8244 21.9844 45.7638 22.0039 45.7638C22.0234 45.7638 22.0391 45.7354 22.0391 45.699C22.0391 45.6626 22.082 45.5898 22.1367 45.5372C22.1914 45.4846 22.2344 45.4199 22.2344 45.3875C22.2344 45.3552 22.2695 45.2985 22.3125 45.2581C22.3555 45.2176 22.3906 45.165 22.3906 45.1367C22.3906 45.1125 22.4336 45.0477 22.4883 44.9951C22.543 44.9426 22.5859 44.8657 22.5859 44.8252C22.5859 44.7848 22.6055 44.7524 22.625 44.7524C22.6484 44.7524 22.6641 44.716 22.6641 44.6756C22.6641 44.6311 22.707 44.5623 22.7617 44.5178C22.8164 44.4733 22.8594 44.4126 22.8594 44.3803C22.8594 44.3479 22.8945 44.2872 22.9375 44.2468C22.9805 44.2063 23.0156 44.1537 23.0156 44.1254C23.0156 44.1011 23.0586 44.0364 23.1133 43.9838C23.168 43.9312 23.2109 43.8584 23.2109 43.822C23.2109 43.7896 23.2461 43.733 23.2891 43.7006C23.332 43.6683 23.3672 43.6116 23.3672 43.5793C23.3672 43.5429 23.4102 43.4701 23.4648 43.4175C23.5195 43.3649 23.5625 43.3002 23.5625 43.2759C23.5625 43.2516 23.6055 43.1869 23.6602 43.1343C23.7109 43.0858 23.7461 43.0291 23.7383 43.0129C23.7305 42.9968 23.7813 42.9199 23.8555 42.839C23.9297 42.754 23.9922 42.665 23.9922 42.6327C23.9922 42.6044 24.0547 42.5235 24.1289 42.4587C24.2031 42.39 24.2656 42.3091 24.2656 42.2767C24.2656 42.2443 24.3281 42.1594 24.4023 42.0825C24.4766 42.0057 24.5391 41.9248 24.5391 41.9005C24.5391 41.8762 24.6016 41.7953 24.6758 41.7184C24.75 41.6416 24.8125 41.5485 24.8125 41.5081C24.8125 41.4676 24.832 41.4353 24.8516 41.4353C24.875 41.4353 24.8906 41.415 24.8906 41.3948C24.8906 41.3705 24.6758 41.3544 24.3281 41.3544C23.8789 41.3544 23.7578 41.3422 23.7188 41.2937C23.6797 41.2451 23.543 41.233 22.9531 41.233C22.5195 41.233 22.2305 41.2168 22.2148 41.1926C22.2031 41.1683 22.043 41.1521 21.8633 41.1521C21.6836 41.1521 21.5234 41.1319 21.5117 41.1116C21.5 41.0874 21.3398 41.0712 21.1602 41.0712C20.9805 41.0712 20.8203 41.051 20.8086 41.0307C20.7969 41.0065 20.6367 40.9903 20.4609 40.9903C20.2188 40.9903 20.1211 40.9741 20.0859 40.9296C20.0469 40.8811 19.918 40.8689 19.3984 40.8689C19.0234 40.8689 18.7578 40.8851 18.7578 40.9053Z"
        fill="white" />
</svg>

